<?xml version="1.0" standalone="no"?>
<!DOCTYPE svg PUBLIC "-//W3C//DTD SVG 20010904//EN"
 "http://www.w3.org/TR/2001/REC-SVG-20010904/DTD/svg10.dtd">
<svg version="1.0" xmlns="http://www.w3.org/2000/svg"
 width="357.000000pt" height="103.000000pt" viewBox="0 0 357.000000 103.000000"
 preserveAspectRatio="xMidYMid meet">

<g transform="translate(0.000000,103.000000) scale(0.100000,-0.100000)"
fill="#000000" stroke="none">
<path d="M324 964 c-49 -31 -95 -62 -102 -68 -9 -9 -12 -39 -10 -104 l3 -92
194 129 193 129 -53 31 c-82 47 -116 43 -225 -25z"/>
<path d="M450 769 c-287 -190 -283 -178 -101 -269 l130 -64 220 147 c220 146
221 147 210 174 -6 16 -19 38 -31 50 l-20 21 -196 -128 -195 -128 -34 16 c-18
9 -33 19 -33 22 0 4 83 62 185 130 102 68 185 126 185 129 0 6 -87 53 -93 50
-1 0 -103 -68 -227 -150z"/>
<path d="M78 805 c-26 -19 -52 -45 -59 -57 -9 -16 -10 -79 -5 -243 6 -182 10
-226 25 -255 15 -30 44 -49 212 -137 247 -130 234 -130 400 -25 297 188 279
168 279 302 0 53 -3 131 -6 172 l-7 75 -219 -143 -219 -144 -125 66 -125 66 3
-62 3 -61 125 -66 125 -66 148 92 c81 51 155 95 163 98 11 4 14 -4 14 -33 l0
-39 -149 -92 c-82 -51 -156 -96 -165 -99 -14 -5 -319 147 -330 165 -3 5 -11
124 -18 265 -6 141 -14 256 -17 256 -3 0 -27 -16 -53 -35z"/>
<path d="M2030 710 c0 -28 2 -30 40 -30 38 0 40 2 40 30 0 28 -2 30 -40 30
-38 0 -40 -2 -40 -30z"/>
<path d="M1880 545 l0 -185 35 0 35 0 0 185 0 185 -35 0 -35 0 0 -185z"/>
<path d="M1347 703 c-4 -3 -7 -19 -7 -35 0 -24 -4 -28 -30 -28 -27 0 -30 -3
-30 -30 0 -27 3 -30 30 -30 l30 0 0 -90 c0 -83 2 -93 25 -115 16 -17 35 -25
59 -25 52 0 66 9 66 40 0 26 -4 29 -37 32 l-38 3 -3 78 -3 77 41 0 c38 0 40 2
40 30 0 28 -2 30 -40 30 -39 0 -40 1 -40 35 0 32 -3 35 -28 35 -16 0 -32 -3
-35 -7z"/>
<path d="M2547 703 c-4 -3 -7 -19 -7 -35 0 -24 -4 -28 -30 -28 -27 0 -30 -3
-30 -30 0 -27 3 -30 30 -30 l30 0 0 -90 c0 -83 2 -93 25 -115 16 -17 35 -25
59 -25 52 0 66 9 66 40 0 26 -4 29 -37 32 l-38 3 -3 78 -3 77 41 0 c38 0 40 2
40 30 0 28 -2 30 -40 30 -39 0 -40 1 -40 35 0 32 -3 35 -28 35 -16 0 -32 -3
-35 -7z"/>
<path d="M2300 643 c-8 -3 -23 -12 -32 -21 -16 -14 -18 -13 -18 1 0 13 -9 17
-35 17 l-35 0 0 -185 0 -185 35 0 35 0 0 55 0 56 30 -16 c90 -46 170 17 170
135 0 107 -69 173 -150 143z m59 -79 c42 -53 13 -154 -44 -154 -33 0 -65 44
-65 90 0 46 32 90 65 90 14 0 32 -11 44 -26z"/>
<path d="M2860 643 c-8 -3 -23 -12 -32 -21 -16 -14 -18 -13 -18 1 0 13 -9 17
-35 17 l-35 0 0 -140 0 -140 35 0 35 0 0 93 c0 108 11 127 73 127 36 0 37 1
37 35 0 30 -3 35 -22 34 -13 0 -30 -3 -38 -6z"/>
<path d="M3011 633 c-92 -46 -91 -222 2 -266 46 -22 92 -21 145 3 38 17 42 22
32 39 -15 30 -25 32 -56 16 -16 -8 -39 -15 -52 -15 -23 0 -72 40 -72 60 0 6
37 10 100 10 l100 0 0 38 c0 101 -104 161 -199 115z m115 -68 c9 -14 14 -28
12 -31 -3 -3 -34 -4 -68 -2 l-62 3 22 28 c29 36 73 37 96 2z"/>
<path d="M3321 633 c-92 -46 -91 -222 2 -266 46 -22 92 -21 145 3 38 17 42 22
32 39 -15 30 -25 32 -56 16 -16 -8 -39 -15 -52 -15 -23 0 -72 40 -72 60 0 6
37 10 100 10 l100 0 0 38 c0 101 -104 161 -199 115z m115 -68 c9 -14 14 -28
12 -31 -3 -3 -34 -4 -68 -2 l-62 3 22 28 c29 36 73 37 96 2z"/>
<path d="M1540 535 c0 -120 12 -155 60 -175 35 -15 86 -7 112 17 17 15 18 15
18 0 0 -13 9 -17 35 -17 l35 0 0 140 0 140 -35 0 -35 0 0 -95 c0 -82 -3 -98
-20 -115 -27 -27 -65 -26 -84 2 -12 16 -16 47 -16 115 l0 93 -35 0 -35 0 0
-105z"/>
<path d="M2030 500 l0 -140 35 0 35 0 0 140 0 140 -35 0 -35 0 0 -140z"/>
</g>
</svg>
